<?xml version="1.0" encoding="UTF-8" standalone="no"?>
<!-- Created with Inkscape (http://www.inkscape.org/) -->

<svg
   xmlns:dc="http://purl.org/dc/elements/1.1/"
   xmlns:cc="http://creativecommons.org/ns#"
   xmlns:rdf="http://www.w3.org/1999/02/22-rdf-syntax-ns#"
   xmlns:svg="http://www.w3.org/2000/svg"
   xmlns="http://www.w3.org/2000/svg"
   xmlns:sodipodi="http://sodipodi.sourceforge.net/DTD/sodipodi-0.dtd"
   xmlns:inkscape="http://www.inkscape.org/namespaces/inkscape"
   width="299.92789"
   height="299.92789"
   id="svg3189"
   version="1.1"
   inkscape:version="0.47 r22583"
   sodipodi:docname="New document 3">
  <defs
     id="defs3191">
    <inkscape:perspective
       sodipodi:type="inkscape:persp3d"
       inkscape:vp_x="0 : 526.18109 : 1"
       inkscape:vp_y="0 : 1000 : 0"
       inkscape:vp_z="744.09448 : 526.18109 : 1"
       inkscape:persp3d-origin="372.04724 : 350.78739 : 1"
       id="perspective3197" />
    <inkscape:perspective
       id="perspective3102"
       inkscape:persp3d-origin="0.5 : 0.33333333 : 1"
       inkscape:vp_z="1 : 0.5 : 1"
       inkscape:vp_y="0 : 1000 : 0"
       inkscape:vp_x="0 : 0.5 : 1"
       sodipodi:type="inkscape:persp3d" />
  </defs>
  <sodipodi:namedview
     id="base"
     pagecolor="#ffffff"
     bordercolor="#666666"
     borderopacity="1.0"
     inkscape:pageopacity="0.0"
     inkscape:pageshadow="2"
     inkscape:zoom="2.8"
     inkscape:cx="71.355001"
     inkscape:cy="15.646637"
     inkscape:document-units="px"
     inkscape:current-layer="layer1"
     showgrid="false"
     inkscape:window-width="1280"
     inkscape:window-height="750"
     inkscape:window-x="-8"
     inkscape:window-y="-8"
     inkscape:window-maximized="1" />
  <metadata
     id="metadata3194">
    <rdf:RDF>
      <cc:Work
         rdf:about="">
        <dc:format>image/svg+xml</dc:format>
        <dc:type
           rdf:resource="http://purl.org/dc/dcmitype/StillImage" />
        <dc:title></dc:title>
      </cc:Work>
    </rdf:RDF>
  </metadata>
  <g
     inkscape:label="Layer 1"
     inkscape:groupmode="layer"
     id="layer1"
     transform="translate(-262.21496,-667.36215)">
    <g
       transform="matrix(4.1656653,0,0,-4.1656653,-524.07103,1757.0652)"
       id="g3010">
      <path
         id="path38"
         style="fill:#781f19;fill-opacity:1;fill-rule:nonzero;stroke:none"
         d="m 260.754,225.5919 c 0,-19.8819 -16.1184,-36.0003 -36.0003,-36.0003 -19.882,0 -35.9997,16.1184 -35.9997,36.0003 0,19.8822 16.1177,35.9997 35.9997,35.9997 19.8819,0 36.0003,-16.1175 36.0003,-35.9997" />
      <path
         id="path40"
         style="fill:#d6a64f;fill-opacity:1;fill-rule:nonzero;stroke:none"
         d="m 252.5355,225.5919 c 0,-15.3437 -12.4382,-27.7818 -27.7818,-27.7818 -15.3431,0 -27.7813,12.4381 -27.7813,27.7818 0,15.3431 12.4382,27.7815 27.7813,27.7815 15.3436,0 27.7818,-12.4384 27.7818,-27.7815" />
      <path
         id="path42"
         style="fill:none;stroke:#ffffff;stroke-width:0.75;stroke-linecap:butt;stroke-linejoin:miter;stroke-miterlimit:10;stroke-opacity:1;stroke-dasharray:none"
         d="m 252.5355,225.5919 c 0,-15.3437 -12.4382,-27.7818 -27.7818,-27.7818 -15.3431,0 -27.7813,12.4381 -27.7813,27.7818 0,15.3431 12.4382,27.7815 27.7813,27.7815 15.3436,0 27.7818,-12.4384 27.7818,-27.7815 z" />
      <path
         id="path44"
         style="fill:#ffffff;fill-opacity:1;fill-rule:nonzero;stroke:none"
         d="m 200.6938,201.678 c 0,0 2.9874,3.0549 2.9874,3.0549 0,0 0.6888,-0.6738 0.6888,-0.6738 0,0 -2.9874,-3.0544 -2.9874,-3.0544 0,0 -0.6888,0.6733 -0.6888,0.6733" />
      <path
         id="path46"
         style="fill:#ffffff;fill-opacity:1;fill-rule:nonzero;stroke:none"
         d="m 202.8067,205.583 c 0,0 -3.3216,-2.6884 -3.3216,-2.6884 0,0 -0.7098,0.8779 -0.7098,0.8779 0,0 0.659,1.675 0.659,1.675 0.1905,0.4804 0.4488,1.0077 0.6993,1.4629 0,0 -0.008,0.0102 -0.008,0.0102 -0.4025,-0.3994 -0.8385,-0.7772 -1.3416,-1.184 0,0 -0.9658,-0.7815 -0.9658,-0.7815 0,0 -0.5584,0.6899 -0.5584,0.6899 0,0 3.3216,2.6876 3.3216,2.6876 0,0 0.6378,-0.7883 0.6378,-0.7883 0,0 -0.707,-1.7462 -0.707,-1.7462 -0.2004,-0.4887 -0.4444,-1.0533 -0.7063,-1.5262 0,0 0.0155,-0.0195 0.0155,-0.0195 0.4244,0.3832 0.8842,0.7721 1.4259,1.2109 0,0 1.0006,0.8096 1.0006,0.8096 0,0 0.5587,-0.6899 0.5587,-0.6899" />
      <path
         id="path48"
         style="fill:#ffffff;fill-opacity:1;fill-rule:nonzero;stroke:none"
         d="m 198.7781,209.8159 c -0.0247,0.0805 -0.0935,0.2019 -0.1502,0.3011 -0.432,0.7679 -1.1367,1.0298 -2.0223,0.5227 -0.7985,-0.4564 -0.9198,-1.1245 -0.5045,-1.8516 0.1043,-0.1809 0.1927,-0.2985 0.2503,-0.3606 0,0 2.4267,1.3884 2.4267,1.3884 z m -2.5424,-2.5642 c -0.2319,0.2767 -0.4887,0.6625 -0.7279,1.0803 -0.4062,0.7104 -0.555,1.2382 -0.4867,1.7444 0.066,0.5497 0.3895,1.0554 1.0502,1.4332 0.7095,0.4062 1.347,0.4278 1.8516,0.2489 0.5477,-0.2049 1.0451,-0.7166 1.4604,-1.4431 0.2489,-0.4348 0.4008,-0.7639 0.4896,-0.9839 0,0 -3.6372,-2.0798 -3.6372,-2.0798" />
      <path
         id="path50"
         style="fill:#ffffff;fill-opacity:1;fill-rule:nonzero;stroke:none"
         d="m 193.3279,212.7983 c 0,0 3.9331,1.6693 3.9331,1.6693 0,0 0.3767,-0.8873 0.3767,-0.8873 0,0 -3.9336,-1.669 -3.9336,-1.669 0,0 -0.3762,0.887 -0.3762,0.887" />
      <path
         id="path52"
         style="fill:#ffffff;fill-opacity:1;fill-rule:nonzero;stroke:none"
         d="m 194.4527,217.0709 c 0,0 -0.7937,-0.5119 -0.7937,-0.5119 -0.2236,-0.1389 -0.5125,-0.3027 -0.7316,-0.434 0,0 0.006,-0.0179 0.006,-0.0179 0.2593,0.0171 0.5887,0.0417 0.8444,0.0502 0,0 0.9428,0.007 0.9428,0.007 0,0 -0.2679,0.9062 -0.2679,0.9062 z m 1.0004,-0.8356 c 0,0 1.1361,0.0246 1.1361,0.0246 0,0 0.2832,-0.9603 0.2832,-0.9603 0,0 -4.4677,0.0436 -4.4677,0.0436 0,0 -0.3569,1.2098 -0.3569,1.2098 0,0 3.7219,2.486 3.7219,2.486 0,0 0.294,-0.9975 0.294,-0.9975 0,0 -0.9584,-0.6259 -0.9584,-0.6259 0,0 0.3478,-1.1803 0.3478,-1.1803" />
      <path
         id="path54"
         style="fill:#ffffff;fill-opacity:1;fill-rule:nonzero;stroke:none"
         d="m 195.586,219.9696 c 0,0 -4.2366,-0.5524 -4.2366,-0.5524 0,0 -0.146,1.1188 -0.146,1.1188 0,0 1.438,1.0826 1.438,1.0826 0.4136,0.3098 0.9093,0.6236 1.3617,0.8807 0,0 -10e-4,0.0127 -10e-4,0.0127 -0.5519,-0.1292 -1.1216,-0.2225 -1.7626,-0.3064 0,0 -1.2322,-0.161 -1.2322,-0.161 0,0 -0.1151,0.8802 -0.1151,0.8802 0,0 4.237,0.5519 4.237,0.5519 0,0 0.1312,-1.0055 0.1312,-1.0055 0,0 -1.5162,-1.1183 -1.5162,-1.1183 -0.4261,-0.3115 -0.9304,-0.6644 -1.4006,-0.9303 0,0 0.004,-0.0249 0.004,-0.0249 0.5615,0.1051 1.1571,0.1953 1.8487,0.2857 0,0 1.2756,0.1661 1.2756,0.1661 0,0 0.1148,-0.8799 0.1148,-0.8799" />
      <path
         id="path56"
         style="fill:#ffffff;fill-opacity:1;fill-rule:nonzero;stroke:none"
         d="m 190.8848,227.5067 c 0,0 4.2692,-0.178 4.2692,-0.178 0,0 -0.0402,-0.9627 -0.0402,-0.9627 0,0 -4.2693,0.178 -4.2693,0.178 0,0 0.0403,0.9627 0.0403,0.9627" />
      <path
         id="path58"
         style="fill:#ffffff;fill-opacity:1;fill-rule:nonzero;stroke:none"
         d="m 195.2011,228.5558 c 0,0 -4.2194,0.6735 -4.2194,0.6735 0,0 0.178,1.1143 0.178,1.1143 0,0 1.6858,0.6296 1.6858,0.6296 0.4841,0.1794 1.0494,0.3398 1.5559,0.4575 0,0 0.003,0.0127 0.003,0.0127 -0.5661,0.0326 -1.139,0.1046 -1.7774,0.2067 0,0 -1.2274,0.1959 -1.2274,0.1959 0,0 0.1404,0.8764 0.1404,0.8764 0,0 4.219,-0.6735 4.219,-0.6735 0,0 -0.1598,-1.0018 -0.1598,-1.0018 0,0 -1.7711,-0.6414 -1.7711,-0.6414 -0.4972,-0.1775 -1.0809,-0.3734 -1.6073,-0.4947 0,0 -0.004,-0.0249 -0.004,-0.0249 0.5686,-0.0587 1.1653,-0.1412 1.8535,-0.2512 0,0 1.2708,-0.2029 1.2708,-0.2029 0,0 -0.1397,-0.8762 -0.1397,-0.8762" />
      <path
         id="path60"
         style="fill:#ffffff;fill-opacity:1;fill-rule:nonzero;stroke:none"
         d="m 195.1367,233.5535 c 0.203,0.2022 0.451,0.5494 0.5743,0.9428 0.1327,0.4235 0.0272,0.7022 -0.2449,0.7875 -0.2483,0.0777 -0.4601,-0.0686 -0.7829,-0.5057 -0.4541,-0.6015 -0.9692,-0.932 -1.5681,-0.7444 -0.696,0.218 -1.0387,0.9698 -0.739,1.9256 0.1457,0.466 0.3407,0.7699 0.5317,0.976 0,0 0.6733,-0.4368 0.6733,-0.4368 -0.1279,-0.1327 -0.3357,-0.3932 -0.4587,-0.7861 -0.1253,-0.3994 0.002,-0.6517 0.2072,-0.7163 0.2605,-0.0814 0.4456,0.1066 0.8178,0.5743 0.4918,0.6367 0.9712,0.8521 1.552,0.6698 0.6837,-0.214 1.1013,-0.9159 0.7509,-2.0353 -0.146,-0.4657 -0.417,-0.8858 -0.616,-1.0757 0,0 -0.6976,0.4243 -0.6976,0.4243" />
      <path
         id="path62"
         style="fill:#ffffff;fill-opacity:1;fill-rule:nonzero;stroke:none"
         d="m 194.4882,239.0386 c 0,0 -0.4851,-1.0474 -0.4851,-1.0474 0,0 -0.7358,0.3407 -0.7358,0.3407 0,0 1.3793,2.9804 1.3793,2.9804 0,0 0.7359,-0.3408 0.7359,-0.3408 0,0 -0.4893,-1.0587 -0.4893,-1.0587 0,0 3.1408,-1.4536 3.1408,-1.4536 0,0 -0.4039,-0.8745 -0.4039,-0.8745 0,0 -3.1419,1.4539 -3.1419,1.4539" />
      <path
         id="path64"
         style="fill:#ffffff;fill-opacity:1;fill-rule:nonzero;stroke:none"
         d="m 195.8173,243.3039 c 0,0 3.6743,-2.1813 3.6743,-2.1813 0,0 -0.4918,-0.8286 -0.4918,-0.8286 0,0 -3.6743,2.1813 -3.6743,2.1813 0,0 0.4918,0.8286 0.4918,0.8286" />
      <path
         id="path66"
         style="fill:#ffffff;fill-opacity:1;fill-rule:nonzero;stroke:none"
         d="m 197.8458,244.8904 c 0,0 -0.6868,-0.9269 -0.6868,-0.9269 0,0 -0.6517,0.483 -0.6517,0.483 0,0 1.9547,2.6385 1.9547,2.6385 0,0 0.6517,-0.483 0.6517,-0.483 0,0 -0.6939,-0.9374 -0.6939,-0.9374 0,0 2.7814,-2.0605 2.7814,-2.0605 0,0 -0.5738,-0.7742 -0.5738,-0.7742 0,0 -2.7816,2.0605 -2.7816,2.0605" />
      <path
         id="path68"
         style="fill:#ffffff;fill-opacity:1;fill-rule:nonzero;stroke:none"
         d="m 200.1129,248.9145 c 0,0 1.7428,-1.7274 1.7428,-1.7274 0.5264,-0.5219 0.9932,-0.5826 1.3368,-0.2359 0.3569,0.36 0.301,0.8082 -0.2392,1.3436 0,0 -1.7425,1.7272 -1.7425,1.7272 0,0 0.6786,0.6843 0.6786,0.6843 0,0 1.7017,-1.6869 1.7017,-1.6869 0.9365,-0.9281 0.9141,-1.8425 0.1284,-2.6354 -0.7586,-0.7654 -1.628,-0.7872 -2.5918,0.1681 0,0 -1.6931,1.6775 -1.6931,1.6775 0,0 0.6783,0.6849 0.6783,0.6849" />
      <path
         id="path70"
         style="fill:#ffffff;fill-opacity:1;fill-rule:nonzero;stroke:none"
         d="m 204.4437,251.744 c 0,0 -0.9207,-0.6947 -0.9207,-0.6947 0,0 -0.4884,0.6477 -0.4884,0.6477 0,0 2.6209,1.9774 2.6209,1.9774 0,0 0.489,-0.6477 0.489,-0.6477 0,0 -0.9312,-0.7027 -0.9312,-0.7027 0,0 2.0841,-2.7632 2.0841,-2.7632 0,0 -0.7688,-0.58 -0.7688,-0.58 0,0 -2.0849,2.7632 -2.0849,2.7632" />
      <path
         id="path72"
         style="fill:#ffffff;fill-opacity:1;fill-rule:nonzero;stroke:none"
         d="m 210.3021,253.563 c 0,0 -1.3663,-0.7784 -1.3663,-0.7784 0,0 0.5023,-0.8815 0.5023,-0.8815 0,0 1.5256,0.8696 1.5256,0.8696 0,0 0.3923,-0.6882 0.3923,-0.6882 0,0 -2.363,-1.3468 -2.363,-1.3468 0,0 -2.1157,3.712 -2.1157,3.712 0,0 2.2853,1.3028 2.2853,1.3028 0,0 0.3923,-0.6882 0.3923,-0.6882 0,0 -1.448,-0.8258 -1.448,-0.8258 0,0 0.4397,-0.771 0.4397,-0.771 0,0 1.3657,0.7784 1.3657,0.7784 0,0 0.3898,-0.6829 0.3898,-0.6829" />
      <path
         id="path74"
         style="fill:#ffffff;fill-opacity:1;fill-rule:nonzero;stroke:none"
         d="m 215.367,254.4551 c 0.6211,0.2018 0.7869,0.9025 0.5281,1.6979 -0.2372,0.7297 -0.7843,1.245 -1.4176,1.0392 -0.6335,-0.2055 -0.7886,-0.9365 -0.5417,-1.6957 0.2489,-0.7662 0.8104,-1.2432 1.4258,-1.0434 0,0 0.005,0.002 0.005,0.002 z m 0.1956,-0.7433 c -1.2002,-0.39 -2.207,0.2892 -2.5838,1.4466 -0.3957,1.218 0.0919,2.383 1.2855,2.7714 1.2479,0.4053 2.2332,-0.3076 2.5977,-1.4289 0.4354,-1.3386 -0.106,-2.401 -1.2934,-2.7868 0,0 -0.006,-0.002 -0.006,-0.002" />
      <path
         id="path76"
         style="fill:#ffffff;fill-opacity:1;fill-rule:nonzero;stroke:none"
         d="m 217.8403,258.8281 c 0,0 2.5693,0.4337 2.5693,0.4337 0,0 0.1318,-0.7815 0.1318,-0.7815 0,0 -1.6197,-0.2733 -1.6197,-0.2733 0,0 0.163,-0.9626 0.163,-0.9626 0,0 1.5131,0.2557 1.5131,0.2557 0,0 0.1304,-0.7753 0.1304,-0.7753 0,0 -1.5129,-0.2554 -1.5129,-0.2554 0,0 0.2863,-1.6943 0.2863,-1.6943 0,0 -0.9501,-0.1604 -0.9501,-0.1604 0,0 -0.7112,4.2134 -0.7112,4.2134" />
      <path
         id="path78"
         style="fill:#ffffff;fill-opacity:1;fill-rule:nonzero;stroke:none"
         d="m 224.7766,258.7031 c 0,0 -1.1531,0.0187 -1.1531,0.0187 0,0 0.0128,0.8116 0.0128,0.8116 0,0 3.2836,-0.0533 3.2836,-0.0533 0,0 -0.0133,-0.8113 -0.0133,-0.8113 0,0 -1.1665,0.0187 -1.1665,0.0187 0,0 -0.0561,-3.4611 -0.0561,-3.4611 0,0 -0.9632,0.0156 -0.9632,0.0156 0,0 0.0558,3.4611 0.0558,3.4611" />
      <path
         id="path80"
         style="fill:#ffffff;fill-opacity:1;fill-rule:nonzero;stroke:none"
         d="m 230.5159,256.5434 c 0,0 -1.5562,0.2236 -1.5562,0.2236 0,0 -0.1443,-1.004 -0.1443,-1.004 0,0 1.7382,-0.2495 1.7382,-0.2495 0,0 -0.1125,-0.7843 -0.1125,-0.7843 0,0 -2.6921,0.3864 -2.6921,0.3864 0,0 0.6069,4.2293 0.6069,4.2293 0,0 2.6048,-0.3739 2.6048,-0.3739 0,0 -0.1134,-0.7841 -0.1134,-0.7841 0,0 -1.6498,0.2367 -1.6498,0.2367 0,0 -0.1261,-0.8785 -0.1261,-0.8785 0,0 1.5559,-0.2233 1.5559,-0.2233 0,0 -0.1114,-0.7784 -0.1114,-0.7784" />
      <path
         id="path82"
         style="fill:#ffffff;fill-opacity:1;fill-rule:nonzero;stroke:none"
         d="m 234.5014,253.7683 c -0.1868,-0.0326 -0.6046,-0.019 -1.0987,0.121 -1.4213,0.4036 -1.8997,1.5018 -1.5655,2.6787 0.3985,1.4026 1.6188,1.8933 2.8624,1.5401 0.4816,-0.1369 0.8203,-0.3387 0.9604,-0.4708 0,0 -0.4034,-0.6764 -0.4034,-0.6764 -0.1602,0.1313 -0.4017,0.2789 -0.737,0.3745 -0.7313,0.2077 -1.4312,-0.0746 -1.6931,-0.9956 -0.2339,-0.8234 0.1068,-1.4802 0.9303,-1.7141 0.2869,-0.0813 0.6077,-0.1131 0.8189,-0.0876 0,0 -0.0743,-0.7698 -0.0743,-0.7698" />
      <path
         id="path84"
         style="fill:#ffffff;fill-opacity:1;fill-rule:nonzero;stroke:none"
         d="m 238.0963,256.7945 c 0,0 -0.6842,-1.4992 -0.6842,-1.4992 0,0 1.4476,-0.6608 1.4476,-0.6608 0,0 0.6843,1.4995 0.6843,1.4995 0,0 0.877,-0.3999 0.877,-0.3999 0,0 -1.7739,-3.8875 -1.7739,-3.8875 0,0 -0.8765,0.4006 -0.8765,0.4006 0,0 0.739,1.6205 0.739,1.6205 0,0 -1.4476,0.6602 -1.4476,0.6602 0,0 -0.739,-1.6205 -0.739,-1.6205 0,0 -0.8773,0.3997 -0.8773,0.3997 0,0 1.7742,3.8877 1.7742,3.8877 0,0 0.8764,-0.4003 0.8764,-0.4003" />
      <path
         id="path86"
         style="fill:#ffffff;fill-opacity:1;fill-rule:nonzero;stroke:none"
         d="m 239.7195,251.2494 c 0,0 2.3723,3.5543 2.3723,3.5543 0,0 0.9382,-0.6264 0.9382,-0.6264 0,0 -0.1306,-1.7952 -0.1306,-1.7952 -0.0394,-0.515 -0.1293,-1.0953 -0.2336,-1.6055 0,0 0.0111,-0.007 0.0111,-0.007 0.2658,0.5008 0.57,0.9912 0.9289,1.5293 0,0 0.6899,1.0335 0.6899,1.0335 0,0 0.7387,-0.4927 0.7387,-0.4927 0,0 -2.3729,-3.5538 -2.3729,-3.5538 0,0 -0.843,0.5627 -0.843,0.5627 0,0 0.1556,1.8779 0.1556,1.8779 0.0462,0.5256 0.1114,1.1376 0.2203,1.6665 0,0 -0.0207,0.0142 -0.0207,0.0142 -0.2903,-0.4921 -0.6143,-1.0001 -1.0015,-1.58 0,0 -0.714,-1.0704 -0.714,-1.0704 0,0 -0.7387,0.4924 -0.7387,0.4924" />
      <path
         id="path88"
         style="fill:#ffffff;fill-opacity:1;fill-rule:nonzero;stroke:none"
         d="m 245.4602,247.7721 c 0.4773,-0.4453 1.1698,-0.2511 1.7416,0.3603 0.5233,0.5607 0.7087,1.2895 0.2222,1.7439 -0.4858,0.4541 -1.201,0.2367 -1.7458,-0.3473 -0.5502,-0.5884 -0.6959,-1.311 -0.2231,-1.7523 0,0 0.005,-0.005 0.005,-0.005 z m -0.5562,-0.5301 c -0.9221,0.8609 -0.8161,2.071 0.0153,2.9608 0.874,0.936 2.1291,1.0735 3.0473,0.2169 0.9587,-0.8958 0.8118,-2.103 0.007,-2.9648 -0.9601,-1.0287 -2.1515,-1.0695 -3.0651,-0.2174 0,0 -0.004,0.004 -0.004,0.004" />
      <path
         id="path90"
         style="fill:#ffffff;fill-opacity:1;fill-rule:nonzero;stroke:none"
         d="m 250.467,247.7458 c 0,0 0.603,-0.7518 0.603,-0.7518 0,0 -2.6992,-2.1668 -2.6992,-2.1668 0,0 1.0638,-1.3249 1.0638,-1.3249 0,0 -0.6324,-0.508 -0.6324,-0.508 0,0 -1.6673,2.0761 -1.6673,2.0761 0,0 3.3321,2.6754 3.3321,2.6754" />
      <path
         id="path92"
         style="fill:#ffffff;fill-opacity:1;fill-rule:nonzero;stroke:none"
         d="m 250.789,241.1864 c 0.3359,-0.5598 1.0554,-0.5638 1.7734,-0.133 0.6571,0.3949 1.0366,1.044 0.6942,1.6144 -0.343,0.5709 -1.0902,0.5584 -1.7748,0.1474 -0.6902,-0.4144 -1.0289,-1.069 -0.6962,-1.6231 0,0 0.003,-0.006 0.003,-0.006 z m -0.6811,-0.3569 c -0.6489,1.0817 -0.2135,2.2159 0.8297,2.8423 1.0984,0.6591 2.3431,0.4453 2.9894,-0.6307 0.6758,-1.1251 0.2018,-2.245 -0.809,-2.8519 -1.2067,-0.7246 -2.3635,-0.4357 -3.0062,0.6349 0,0 -0.004,0.005 -0.004,0.005" />
      <path
         id="path94"
         style="fill:#ffffff;fill-opacity:1;fill-rule:nonzero;stroke:none"
         d="m 253.1755,234.9006 c -0.2044,0.2395 -0.5417,0.7123 -0.7506,1.237 -0.2877,0.7245 -0.3132,1.3215 -0.1103,1.8247 0.2056,0.4977 0.6438,0.9039 1.2269,1.1355 1.3223,0.5176 2.4582,-0.1431 2.9752,-1.4451 0.2033,-0.5128 0.26,-0.9473 0.2483,-1.1766 0,0 -0.799,-0.0995 -0.799,-0.0995 0.0133,0.2576 -0.0213,0.551 -0.1942,0.987 -0.2971,0.7483 -0.9479,1.1517 -1.8088,0.8101 -0.8243,-0.3277 -1.0962,-1.0355 -0.8036,-1.7722 0.0793,-0.2004 0.1683,-0.3557 0.2256,-0.4147 0,0 0.8376,0.3322 0.8376,0.3322 0,0 -0.2435,0.6126 -0.2435,0.6126 0,0 0.7008,0.2784 0.7008,0.2784 0,0 0.5873,-1.4792 0.5873,-1.4792 0,0 -2.0917,-0.8302 -2.0917,-0.8302" />
      <path
         id="path96"
         style="fill:#ffffff;fill-opacity:1;fill-rule:nonzero;stroke:none"
         d="m 253.5307,232.7666 c 0,0 1.705,0.3929 1.705,0.3929 0,0 2.1555,1.8825 2.1555,1.8825 0,0 0.2492,-1.0811 0.2492,-1.0811 0,0 -0.904,-0.6506 -0.904,-0.6506 -0.273,-0.1995 -0.4734,-0.3432 -0.7225,-0.5048 0,0 0.002,-0.0128 0.002,-0.0128 0.2809,-0.0326 0.5443,-0.0759 0.8697,-0.1312 0,0 1.0976,-0.1894 1.0976,-0.1894 0,0 0.2429,-1.0562 0.2429,-1.0562 0,0 -2.7434,0.8119 -2.7434,0.8119 0,0 -1.7359,-0.4 -1.7359,-0.4 0,0 -0.2166,0.9388 -0.2166,0.9388" />
      <path
         id="path98"
         style="fill:#ffffff;fill-opacity:1;fill-rule:nonzero;stroke:none"
         d="m 256.0581,224.3758 c 0.5128,0.0272 1.1273,0.0567 1.7546,0.0663 0,0 0,0.0134 0,0.0134 -0.5473,0.1304 -1.1588,0.2976 -1.6622,0.4544 0,0 -1.6756,0.4929 -1.6756,0.4929 0,0 -0.0122,0.7543 -0.0122,0.7543 0,0 1.6404,0.483 1.6404,0.483 0.5058,0.1477 1.105,0.2971 1.6674,0.4139 0,0 0,0.0127 0,0.0127 -0.5774,0.01 -1.2368,0.0241 -1.77,0.0409 0,0 -1.6234,0.0561 -1.6234,0.0561 0,0 -0.0144,0.894 -0.0144,0.894 0,0 4.2763,-0.2035 4.2763,-0.2035 0,0 0.0207,-1.2869 0.0207,-1.2869 0,0 -1.4258,-0.4414 -1.4258,-0.4414 -0.4859,-0.1474 -1.0162,-0.2832 -1.5151,-0.3863 0,0 0,-0.0247 0,-0.0247 0.4963,-0.1066 1.0564,-0.2432 1.5406,-0.3813 0,0 1.4272,-0.4271 1.4272,-0.4271 0,0 0.0205,-1.2674 0.0205,-1.2674 0,0 -4.2687,-0.2977 -4.2687,-0.2977 0,0 -0.0145,0.9386 -0.0145,0.9386 0,0 1.6342,0.0958 1.6342,0.0958" />
      <path
         id="path100"
         style="fill:#ffffff;fill-opacity:1;fill-rule:nonzero;stroke:none"
         d="m 255.7032,219.8724 c 0,0 0.9388,0.11 0.9388,0.11 0.2611,0.0266 0.5927,0.0473 0.847,0.0686 0,0 0.003,0.019 0.003,0.019 -0.2404,0.0983 -0.5468,0.2217 -0.7798,0.3251 0,0 -0.8507,0.4085 -0.8507,0.4085 0,0 -0.1584,-0.9312 -0.1584,-0.9312 z m -0.5307,1.1897 c 0,0 -1.0309,0.4776 -1.0309,0.4776 0,0 0.1678,0.9876 0.1678,0.9876 0,0 3.9937,-2.0046 3.9937,-2.0046 0,0 -0.2117,-1.243 -0.2117,-1.243 0,0 -4.4363,-0.5956 -4.4363,-0.5956 0,0 0.1747,1.0248 0.1747,1.0248 0,0 1.1364,0.1411 1.1364,0.1411 0,0 0.2063,1.2121 0.2063,1.2121" />
      <path
         id="path102"
         style="fill:#ffffff;fill-opacity:1;fill-rule:nonzero;stroke:none"
         d="m 253.7906,216.6075 c -0.0447,-0.0715 -0.0898,-0.2038 -0.1264,-0.3116 -0.2888,-0.8328 -0.0184,-1.5341 0.9488,-1.8618 0.8702,-0.295 1.4516,0.0567 1.72,0.849 0.0675,0.1979 0.097,0.3424 0.1046,0.4266 0,0 -2.647,0.8978 -2.647,0.8978 z m 3.6051,-0.2053 c -0.0535,-0.3563 -0.1723,-0.8047 -0.3271,-1.2611 -0.263,-0.7747 -0.5604,-1.2359 -0.985,-1.5202 -0.4544,-0.3149 -1.0485,-0.4076 -1.7691,-0.1636 -0.7742,0.2631 -1.2124,0.7265 -1.4131,1.2226 -0.2086,0.5465 -0.155,1.2583 0.1137,2.0503 0.161,0.4745 0.3067,0.8067 0.4121,1.0182 0,0 3.9685,-1.3462 3.9685,-1.3462" />
      <path
         id="path104"
         style="fill:#ffffff;fill-opacity:1;fill-rule:nonzero;stroke:none"
         d="m 253.4272,211.3078 c 0,0 -0.1757,-0.3379 -0.1757,-0.3379 -0.2214,-0.4274 -0.1392,-0.7917 0.1928,-0.964 0.3432,-0.1778 0.6463,-0.0355 0.8506,0.3588 0.1077,0.2084 0.1576,0.3322 0.1729,0.4031 0,0 -1.0406,0.54 -1.0406,0.54 z m 2.0665,0.005 c -0.0918,-0.3013 -0.2687,-0.7243 -0.5077,-1.1855 -0.292,-0.5635 -0.5811,-0.9127 -0.9402,-1.0695 -0.3002,-0.1366 -0.6288,-0.1236 -0.9774,0.0576 -0.4788,0.2477 -0.6324,0.7636 -0.5814,1.1511 0,0 -0.0167,0.009 -0.0167,0.009 -0.2441,-0.2086 -0.5681,-0.2268 -0.9666,-0.1409 -0.4947,0.1066 -1.0477,0.2506 -1.2317,0.2535 0,0 0.4547,0.8778 0.4547,0.8778 0.1363,9e-4 0.4955,-0.0643 1.0185,-0.1998 0.5334,-0.1414 0.7418,-0.0417 0.9311,0.3093 0,0 0.1319,0.2534 0.1319,0.2534 0,0 -1.4911,0.7738 -1.4911,0.7738 0,0 0.4408,0.8501 0.4408,0.8501 0,0 3.7358,-1.9397 3.7358,-1.9397" />
      <path
         id="path106"
         style="fill:#ffffff;fill-opacity:1;fill-rule:nonzero;stroke:none"
         d="m 250.0135,206.8203 c 0,0 0.8903,-0.3161 0.8903,-0.3161 0.2458,-0.0921 0.5525,-0.2202 0.7901,-0.3135 0,0 0.011,0.0153 0.011,0.0153 -0.172,0.1948 -0.392,0.4408 -0.5556,0.6367 0,0 -0.5822,0.7424 -0.5822,0.7424 0,0 -0.5536,-0.7648 -0.5536,-0.7648 z m 0.0502,1.3022 c 0,0 -0.7135,0.8841 -0.7135,0.8841 0,0 0.5879,0.8113 0.5879,0.8113 0,0 2.6946,-3.5643 2.6946,-3.5643 0,0 -0.7398,-1.0213 -0.7398,-1.0213 0,0 -4.2418,1.4281 -4.2418,1.4281 0,0 0.6097,0.8416 0.6097,0.8416 0,0 1.0817,-0.3756 1.0817,-0.3756 0,0 0.7212,0.9961 0.7212,0.9961" />
      <path
         id="path108"
         style="fill:#ffffff;fill-opacity:1;fill-rule:nonzero;stroke:none"
         d="m 247.6945,205.2476 c -0.2722,-0.0901 -0.65,-0.2902 -0.9355,-0.587 -0.3078,-0.3195 -0.3381,-0.616 -0.1326,-0.8139 0.1868,-0.1802 0.4419,-0.144 0.926,0.1021 0.6753,0.3362 1.2833,0.4008 1.7357,-0.0346 0.525,-0.5057 0.4958,-1.3311 -0.1993,-2.0528 -0.3384,-0.3507 -0.6491,-0.5361 -0.9113,-0.6353 0,0 -0.4076,0.6911 -0.4076,0.6911 0.1737,0.0618 0.4756,0.2021 0.7613,0.4989 0.2906,0.3019 0.29,0.5839 0.1347,0.7333 -0.1967,0.1894 -0.4459,0.104 -0.9882,-0.1482 -0.7242,-0.3501 -1.2495,-0.328 -1.6877,0.0941 -0.5156,0.4969 -0.5757,1.3118 0.2381,2.1569 0.3382,0.3509 0.7688,0.6054 1.0318,0.6868 0,0 0.4346,-0.6914 0.4346,-0.6914" />
      <path
         id="path110"
         style="fill:#ffffff;fill-opacity:1;fill-rule:nonzero;stroke:none"
         d="m 244.8675,200.1464 c 0,-0.3487 -0.2829,-0.6316 -0.6319,-0.6316 -0.3495,0 -0.6318,0.2829 -0.6318,0.6316 0,0.3489 0.2823,0.6321 0.6318,0.6321 0.349,0 0.6319,-0.2832 0.6319,-0.6321" />
      <path
         id="path112"
         style="fill:#ffffff;fill-opacity:1;fill-rule:nonzero;stroke:none"
         d="m 205.9041,200.1464 c 0,-0.3487 -0.2832,-0.6313 -0.6318,-0.6313 -0.3492,0 -0.6319,0.2826 -0.6319,0.6313 0,0.3489 0.2827,0.6324 0.6319,0.6324 0.3486,0 0.6318,-0.2835 0.6318,-0.6324" />
      <path
         id="path114"
         style="fill:#ffffff;fill-opacity:1;fill-rule:nonzero;stroke:none"
         d="m 209.647,208.5829 c 0,0 10.091,-1.8015 10.091,-1.8015 0,0 -1.0814,-1.2611 -1.0814,-1.2611 0,0 9.9111,-0.864 9.9111,-0.864 0,0 -0.9924,-0.811 -0.9924,-0.811 0,0 9.7792,-0.4291 9.7792,-0.4291 0,0 -12.9316,-1.2824 -12.9316,-1.2824 0,0 1.6217,1.4411 1.6217,1.4411 0,0 -10.2708,1.0443 -10.2708,1.0443 0,0 1.7116,1.2611 1.7116,1.2611 0,0 -7.8384,2.7026 -7.8384,2.7026" />
      <path
         id="path116"
         style="fill:#ffffff;fill-opacity:1;fill-rule:nonzero;stroke:none"
         d="m 208.4839,199.8091 c 0,0 0.8878,-0.5205 0.8878,-0.5205 0.003,0.1693 0.0247,0.332 0.0652,0.4879 0.0409,0.1553 0.101,0.301 0.1803,0.4368 0.1239,0.2126 0.3135,0.3433 0.5684,0.3932 0.2548,0.0501 0.5006,0.006 0.7387,-0.1336 0.2925,-0.1715 0.5343,-0.4801 0.7259,-0.9266 0.1917,-0.4453 0.3118,-0.9765 0.3603,-1.5922 0,0 -0.1822,-0.021 -0.1822,-0.021 -0.0386,0.4501 -0.1503,0.8504 -0.3357,1.2013 -0.1851,0.351 -0.426,0.6134 -0.7231,0.7875 -0.1658,0.0969 -0.3512,0.1057 -0.557,0.0278 -0.2066,-0.0783 -0.3713,-0.2245 -0.4958,-0.4357 -0.0893,-0.1525 -0.1409,-0.2645 -0.1553,-0.3373 0,0 0.3495,-0.2044 0.3495,-0.2044 0,0 0.0643,-0.5477 0.0643,-0.5477 0,0 -0.4779,0.2801 -0.4779,0.2801 0,0 -1.6395,-2.7941 -1.6395,-2.7941 0,0 -0.3204,0.6137 -0.3204,0.6137 0,0 1.4542,2.4777 1.4542,2.4777 0,0 -0.4479,0.2625 -0.4479,0.2625 0,0 -0.0598,0.5446 -0.0598,0.5446" />
      <path
         id="path118"
         style="fill:#ffffff;fill-opacity:1;fill-rule:nonzero;stroke:none"
         d="m 210.7947,197.4889 c -0.043,-0.1738 -0.1111,-0.3557 -0.2032,-0.5465 0.0601,-0.1332 0.1301,-0.2475 0.2086,-0.3433 0.0785,-0.0949 0.1642,-0.1652 0.256,-0.21 0.0972,-0.0471 0.203,-0.0692 0.3178,-0.0675 0.1145,0.002 0.2279,0.0281 0.339,0.0774 0,0 0.451,0.93 0.451,0.93 0,0 -1.3215,0.6415 -1.3215,0.6415 0.0107,-0.1482 -0.005,-0.3084 -0.0477,-0.4816 z m 0.1168,-2.7448 c 0,0 0.5122,1.0588 0.5122,1.0588 -0.0368,-0.009 -0.089,-0.005 -0.1559,0.0144 -0.0663,0.0187 -0.1465,0.0502 -0.2389,0.0953 -0.1403,0.0686 -0.2628,0.178 -0.3665,0.3285 -0.1035,0.1511 -0.1815,0.3291 -0.2339,0.5343 -0.1239,-0.1196 -0.2582,-0.2094 -0.4025,-0.2707 -0.1449,-0.0609 -0.2846,-0.083 -0.419,-0.0666 0.0902,-0.5119 0.2889,-1.0307 0.597,-1.5554 0,0 -0.3594,-0.1527 -0.3594,-0.1527 -0.5253,1.5077 -0.7127,2.4151 -0.563,2.7243 0.0403,0.0845 0.0978,0.1432 0.1721,0.178 0.0742,0.0349 0.1423,0.0375 0.2043,0.007 0.0703,-0.0346 0.1253,-0.0924 0.163,-0.1769 0.0389,-0.0839 0.0573,-0.1834 0.0567,-0.2973 0.1253,-3e-4 0.2407,0.0329 0.3467,0.0986 0.106,0.0664 0.1865,0.1571 0.2432,0.2722 0.0491,0.1017 0.0828,0.2004 0.1015,0.295 0.0193,0.0953 0.0215,0.184 0.007,0.2679 0,0 -0.9831,0.4757 -0.9831,0.4757 0,0 -0.1063,0.5417 -0.1063,0.5417 0,0 3.5969,-1.7428 3.5969,-1.7428 0,0 0.1063,-0.5417 0.1063,-0.5417 0,0 -0.4972,0.2415 -0.4972,0.2415 0,0 -1.4131,-2.9165 -1.4131,-2.9165 0,0 -0.3682,0.587 -0.3682,0.587" />
      <path
         id="path120"
         style="fill:#ffffff;fill-opacity:1;fill-rule:nonzero;stroke:none"
         d="m 212.7016,197.5669 c 0,0 0.9661,-0.3773 0.9661,-0.3773 -0.0247,0.1669 -0.0298,0.3308 -0.0154,0.4904 0.0151,0.159 0.0499,0.3118 0.1069,0.4578 0.089,0.227 0.2548,0.386 0.4975,0.4751 0.2429,0.0884 0.4929,0.0833 0.7489,-0.0171 0.3164,-0.1233 0.6038,-0.3889 0.8632,-0.7968 0.2599,-0.4084 0.4629,-0.911 0.6086,-1.5091 0,0 -0.1766,-0.0494 -0.1766,-0.0494 -0.1092,0.4366 -0.2821,0.8127 -0.5196,1.1288 -0.2379,0.3158 -0.5162,0.5357 -0.8363,0.6607 -0.1783,0.0695 -0.3625,0.0497 -0.5527,-0.0606 -0.1905,-0.1091 -0.3297,-0.2778 -0.4181,-0.5051 -0.0644,-0.1642 -0.0972,-0.2829 -0.1007,-0.3552 0,0 0.3745,-0.1457 0.3745,-0.1457 0,0 0.1477,-0.5349 0.1477,-0.5349 0,0 -0.5153,0.2009 -0.5153,0.2009 0,0 -1.1784,-3.0186 -1.1784,-3.0186 0,0 -0.4119,0.5562 -0.4119,0.5562 0,0 1.044,2.6753 1.044,2.6753 0,0 -0.4861,0.19 -0.4861,0.19 0,0 -0.1463,0.5346 -0.1463,0.5346" />
      <path
         id="path122"
         style="fill:#ffffff;fill-opacity:1;fill-rule:nonzero;stroke:none"
         d="m 214.6158,193.2211 c 0.0392,-0.0661 0.0984,-0.1109 0.1775,-0.135 0.1599,-0.0473 0.3297,-0.0396 0.5094,0.0239 0.1794,0.0629 0.3399,0.1731 0.4793,0.3308 -0.3243,0.0972 -0.5366,0.1989 -0.6378,0.3061 -0.1352,0.005 -0.2551,-0.0232 -0.3577,-0.0842 -0.1021,-0.0615 -0.1684,-0.1429 -0.2001,-0.2452 -0.0193,-0.0658 -0.0102,-0.1318 0.0294,-0.1964 z m 3.0473,2.6523 c 0,0 0.1891,-0.5207 0.1891,-0.5207 0,0 -0.633,0.1902 -0.633,0.1902 0,0 -0.2951,-0.9833 -0.2951,-0.9833 0,0 -1.3731,0.4121 -1.3731,0.4121 -0.1077,0.0324 -0.2112,0.0188 -0.3113,-0.0408 -0.1,-0.0595 -0.1672,-0.1485 -0.2026,-0.2656 -0.038,-0.127 -0.0153,-0.2517 0.0677,-0.3744 0.0834,-0.1228 0.203,-0.207 0.3578,-0.2535 0,0 0.4325,-0.0915 0.4325,-0.0915 -0.006,0.0329 -0.009,0.0643 -0.01,0.0955 -0.001,0.0306 0.002,0.0578 0.009,0.0808 0.0272,0.0904 0.0924,0.1542 0.1964,0.1942 0.1052,0.0416 0.2177,0.0433 0.3402,0.007 0.1267,-0.0386 0.2199,-0.1185 0.2803,-0.2421 0.0601,-0.1236 0.0703,-0.2528 0.0289,-0.3892 -0.0266,-0.0896 -0.0839,-0.1638 -0.1698,-0.2222 -0.0878,-0.059 -0.1905,-0.0907 -0.3106,-0.0958 0,0 0.5553,-1.0865 0.5553,-1.0865 0,0 -0.3439,-0.127 -0.3439,-0.127 0,0 -0.292,0.8163 -0.292,0.8163 -0.1757,-0.1417 -0.367,-0.2341 -0.5734,-0.28 -0.2066,-0.0457 -0.4011,-0.04 -0.5851,0.0144 -0.2248,0.0681 -0.4283,0.2112 -0.6097,0.4289 -0.1823,0.218 -0.2517,0.3994 -0.2081,0.5451 0.0156,0.0516 0.0366,0.0987 0.0624,0.1423 0.0255,0.0434 0.0564,0.0825 0.0913,0.1188 -0.2339,0.0901 -0.4122,0.2245 -0.5355,0.4028 -0.123,0.178 -0.1593,0.3518 -0.1077,0.5213 0.0178,0.0609 0.0658,0.1304 0.1423,0.2072 0.0771,0.0768 0.1763,0.1565 0.2985,0.2375 0,0 0.3671,-0.5714 0.3671,-0.5714 -0.0834,-0.0372 -0.1523,-0.0777 -0.2072,-0.1225 -0.0548,-0.0453 -0.0882,-0.089 -0.1012,-0.1318 -0.0196,-0.0652 -0.002,-0.1335 0.0513,-0.2024 0.0524,-0.0706 0.1289,-0.1202 0.2282,-0.1502 0,0 0.3483,0.1258 0.3483,0.1258 -0.0859,0.1284 -0.1397,0.2671 -0.1627,0.4145 -0.0229,0.1482 -0.0136,0.2925 0.0287,0.4339 0.0498,0.1645 0.1712,0.2824 0.3636,0.3527 0.1934,0.0703 0.4026,0.0717 0.6279,0.004 0,0 0.8107,-0.2437 0.8107,-0.2437 0,0 0.1471,0.4889 0.1471,0.4889 0,0 -2.6589,0.7986 -2.6589,0.7986 0,0 -0.189,0.521 -0.189,0.521 0,0 3.8551,-1.1586 3.8551,-1.1586" />
      <path
         id="path124"
         style="fill:#ffffff;fill-opacity:1;fill-rule:nonzero;stroke:none"
         d="m 217.9706,195.1172 c 0.0868,-0.1083 0.2061,-0.1837 0.3578,-0.2257 0,0 0.1111,0.6157 0.1111,0.6157 0.0122,0.0672 0.008,0.1296 -0.0111,0.1854 -0.0195,0.0556 -0.0484,0.087 -0.0873,0.0941 -0.11,0.0204 -0.2109,-0.002 -0.3016,-0.0652 -0.0907,-0.0635 -0.1468,-0.1505 -0.1669,-0.2611 -0.0219,-0.121 0.011,-0.2355 0.098,-0.3432 z m 1.1617,0.4909 c 0,0 1.7719,-0.322 1.7719,-0.322 0,0 0.2461,-0.4961 0.2461,-0.4961 0,0 -0.5423,0.0987 -0.5423,0.0987 0,0 -0.578,-3.1864 -0.578,-3.1864 0,0 -0.515,0.468 -0.515,0.468 0,0 0.1715,0.9425 0.1715,0.9425 0,0 -1.0472,0.1905 -1.0472,0.1905 0,0 -0.0654,-0.3629 -0.0654,-0.3629 -0.0151,-0.0819 -0.0496,-0.1462 -0.1024,-0.1938 -0.0538,-0.0482 -0.1088,-0.0661 -0.1675,-0.0559 -0.1732,0.0312 -0.3467,0.1828 -0.519,0.4527 -0.1727,0.2718 -0.2421,0.5006 -0.2078,0.6888 0.009,0.0482 0.0411,0.0856 0.0984,0.1126 0.0572,0.0266 0.119,0.0343 0.1868,0.0223 0,0 0.2882,-0.0532 0.2882,-0.0532 0,0 0.1248,0.6874 0.1248,0.6874 -0.2741,0.1304 -0.4845,0.3055 -0.6302,0.5261 -0.1457,0.2214 -0.1984,0.4425 -0.1573,0.6647 0.0244,0.14 0.1035,0.2492 0.2339,0.328 0.1315,0.0785 0.2769,0.1034 0.4354,0.0745 0.2171,-0.0388 0.4127,-0.1956 0.5865,-0.4694 0.1737,-0.2733 0.24,-0.5258 0.1981,-0.7577 0,0 -0.2106,-1.1582 -0.2106,-1.1582 0,0 1.0465,-0.19 1.0465,-0.19 0,0 0.2495,1.3743 0.2495,1.3743 0,0 -0.6852,0.1247 -0.6852,0.1247 0,0 -0.2097,0.4898 -0.2097,0.4898" />
      <path
         id="path126"
         style="fill:#ffffff;fill-opacity:1;fill-rule:nonzero;stroke:none"
         d="m 220.03,197.0955 c 0.1525,0.1122 0.3234,0.157 0.5128,0.1332 0.1945,-0.0247 0.3677,-0.0989 0.5196,-0.2239 0.1525,-0.1253 0.2588,-0.2838 0.3186,-0.4734 0,0 -0.1224,-0.0961 -0.1224,-0.0961 -0.0584,0.0915 -0.1262,0.1638 -0.203,0.2188 -0.0768,0.0542 -0.1568,0.0862 -0.2393,0.0964 -0.1689,0.0212 -0.3223,-0.0218 -0.4586,-0.1284 -0.1366,-0.1077 -0.2154,-0.2461 -0.2367,-0.4164 -0.0116,-0.0927 0.004,-0.1968 0.0462,-0.3113 0.0422,-0.1139 0.1108,-0.2318 0.2033,-0.3518 0,0 -0.1602,-0.0992 -0.1602,-0.0992 -0.1655,0.1783 -0.2872,0.3751 -0.3637,0.5877 -0.0779,0.212 -0.1035,0.4212 -0.0782,0.6256 0.0224,0.1805 0.1097,0.3262 0.2616,0.4388" />
      <path
         id="path128"
         style="fill:#ffffff;fill-opacity:1;fill-rule:nonzero;stroke:none"
         d="m 221.4181,192.8585 c 0.0871,-0.0847 0.1965,-0.1318 0.3294,-0.1417 0.1803,-0.0142 0.3756,0.0156 0.5851,0.089 0.21,0.0728 0.4181,0.1845 0.6259,0.3365 -0.1157,0.1601 -0.2441,0.2883 -0.3844,0.3821 -0.1406,0.0941 -0.2815,0.1462 -0.4235,0.157 -0.2248,0.0162 -0.4195,-0.0269 -0.5845,-0.1298 -0.1655,-0.1032 -0.254,-0.2356 -0.2659,-0.3966 -0.008,-0.1125 0.0312,-0.2109 0.1179,-0.2965 z m 2.4962,2.2062 c 0,0 0.2968,-0.4671 0.2968,-0.4671 0,0 -0.5508,0.0408 -0.5508,0.0408 0,0 -0.2409,-3.2318 -0.2409,-3.2318 0,0 -0.5593,0.4116 -0.5593,0.4116 0,0 0.0553,0.737 0.0553,0.737 -0.1511,-0.1071 -0.3047,-0.1876 -0.4612,-0.2401 -0.1562,-0.0527 -0.3053,-0.0737 -0.4473,-0.0629 -0.2735,0.0198 -0.5403,0.1678 -0.7999,0.4428 -0.2605,0.2761 -0.3807,0.538 -0.362,0.788 0.0153,0.2103 0.1182,0.3849 0.3073,0.523 0.1904,0.1392 0.4127,0.1984 0.6669,0.1797 0.2254,-0.0167 0.4408,-0.0947 0.6466,-0.233 0.2058,-0.1383 0.3765,-0.3229 0.5122,-0.5545 0,0 0.0956,1.2841 0.0956,1.2841 0,0 -2.355,0.1755 -2.355,0.1755 0,0 -0.2974,0.4666 -0.2974,0.4666 0,0 3.4931,-0.2597 3.4931,-0.2597" />
      <path
         id="path130"
         style="fill:#ffffff;fill-opacity:1;fill-rule:nonzero;stroke:none"
         d="m 223.5586,195.0996 c 0,0 1.0355,-0.0167 1.0355,-0.0167 -0.0819,0.1482 -0.1435,0.3004 -0.1854,0.4549 -0.0417,0.1548 -0.0612,0.311 -0.0587,0.4677 0.004,0.2452 0.104,0.4513 0.3011,0.62 0.1964,0.1675 0.4328,0.2497 0.7075,0.2455 0.3399,-0.006 0.7013,-0.1542 1.0879,-0.4468 0.3852,-0.2934 0.7506,-0.695 1.0965,-1.2053 0,0 -0.1491,-0.1077 -0.1491,-0.1077 -0.2543,0.3708 -0.5485,0.6636 -0.8808,0.8773 -0.3336,0.2135 -0.6706,0.3226 -1.0153,0.3289 -0.1917,0.002 -0.3569,-0.0805 -0.4978,-0.2492 -0.1403,-0.1701 -0.2126,-0.3762 -0.2166,-0.6211 -0.003,-0.1763 0.007,-0.299 0.0309,-0.3676 0,0 0.4031,-0.007 0.4031,-0.007 0,0 0.3246,-0.4485 0.3246,-0.4485 0,0 -0.5528,0.01 -0.5528,0.01 0,0 -0.0527,-3.2385 -0.0527,-3.2385 0,0 -0.5805,0.3781 -0.5805,0.3781 0,0 0.0467,2.8695 0.0467,2.8695 0,0 -0.5215,0.008 -0.5215,0.008 0,0 -0.3226,0.4482 -0.3226,0.4482" />
      <path
         id="path132"
         style="fill:#ffffff;fill-opacity:1;fill-rule:nonzero;stroke:none"
         d="m 228.2238,195.2447 c 0,0 0.3603,-0.4209 0.3603,-0.4209 0,0 -0.5505,-0.0372 -0.5505,-0.0372 0,0 0.2158,-3.232 0.2158,-3.232 0,0 -0.6115,0.3291 -0.6115,0.3291 0,0 -0.1074,1.6163 -0.1074,1.6163 0,0 -1.1395,-0.076 -1.1395,-0.076 -0.1035,-0.007 -0.1866,-0.0595 -0.2518,-0.157 -0.0643,-0.0984 -0.0932,-0.2129 -0.0836,-0.345 0.0128,-0.201 0.0913,-0.4068 0.233,-0.6157 0.1418,-0.2092 0.3371,-0.4048 0.5848,-0.5848 0,0 -0.2083,-0.1984 -0.2083,-0.1984 -0.3648,0.3198 -0.6503,0.6231 -0.8547,0.9091 -0.2032,0.2871 -0.3126,0.5357 -0.3268,0.7458 -0.013,0.2109 0.0394,0.396 0.1593,0.5567 0.1193,0.1604 0.2701,0.2466 0.451,0.2585 0,0 1.398,0.0933 1.398,0.0933 0,0 -0.0445,0.6613 -0.0445,0.6613 0,0 -2.3164,-0.1542 -2.3164,-0.1542 0,0 -0.3595,0.4204 -0.3595,0.4204 0,0 3.4523,0.2307 3.4523,0.2307" />
      <path
         id="path134"
         style="fill:#ffffff;fill-opacity:1;fill-rule:nonzero;stroke:none"
         d="m 230.5213,193.3693 c 0.0834,-0.0555 0.1761,-0.0728 0.2775,-0.0521 0.1491,0.0303 0.29,0.1009 0.4249,0.2143 0.1344,0.1125 0.2492,0.2559 0.3439,0.4305 -0.085,0.0976 -0.1828,0.1684 -0.2951,0.2126 -0.1111,0.0448 -0.2171,0.057 -0.3183,0.036 -0.1877,-0.0377 -0.3393,-0.1156 -0.4547,-0.2349 -0.1162,-0.1185 -0.161,-0.2418 -0.1349,-0.3714 0.0204,-0.1012 0.0725,-0.1791 0.1567,-0.235 z m 2.6601,2.7984 c 0,0 0.4127,-0.3657 0.4127,-0.3657 0,0 -1.73,-0.3523 -1.73,-0.3523 0,0 0.1979,-0.9749 0.1979,-0.9749 0.0513,0.0964 0.119,0.1763 0.2046,0.2398 0.0848,0.063 0.1806,0.1058 0.2866,0.127 0.1979,0.0403 0.428,-0.0643 0.6908,-0.3143 0.2622,-0.2498 0.4221,-0.5171 0.4793,-0.8011 0.0267,-0.1301 0.027,-0.2752 0.001,-0.4357 -0.0247,-0.161 -0.0746,-0.3268 -0.1511,-0.4975 0,0 -0.5593,0.3376 -0.5593,0.3376 0.1125,0.1684 0.1899,0.3311 0.2358,0.4907 0.046,0.1593 0.0562,0.3016 0.0307,0.4269 -0.025,0.1199 -0.0842,0.214 -0.1789,0.2832 -0.0941,0.068 -0.1976,0.0907 -0.3087,0.0686 -0.1015,-0.021 -0.205,-0.0814 -0.3104,-0.1806 -0.1052,-0.0986 -0.201,-0.2293 -0.2889,-0.3931 0,0 0.3155,-1.5509 0.3155,-1.5509 0,0 -0.6488,0.2447 -0.6488,0.2447 0,0 -0.161,0.7934 -0.161,0.7934 -0.0652,-0.0984 -0.1471,-0.1797 -0.2441,-0.2446 -0.0972,-0.0647 -0.2024,-0.1086 -0.318,-0.1324 -0.2166,-0.0442 -0.459,0.0365 -0.726,0.2432 -0.2673,0.2061 -0.4255,0.4314 -0.4756,0.6766 -0.034,0.1684 0.008,0.3268 0.1244,0.4762 0.1185,0.1491 0.2747,0.2432 0.4728,0.2838 0.1539,0.0314 0.3164,0.0144 0.4867,-0.051 0.1721,-0.0661 0.3342,-0.1713 0.4893,-0.3161 0,0 -0.2211,1.0834 -0.2211,1.0834 0,0 -1.8102,-0.3685 -1.8102,-0.3685 0,0 -0.4127,0.3659 -0.4127,0.3659 0,0 4.1162,0.8377 4.1162,0.8377" />
      <path
         id="path136"
         style="fill:#ffffff;fill-opacity:1;fill-rule:nonzero;stroke:none"
         d="m 232.9668,192.3956 c 0,0 0.006,0.001 0.006,0.001 0,0 0.003,-0.007 0.003,-0.007 0,0 -0.007,-0.001 -0.007,-0.001 0,0 -0.002,0.007 -0.002,0.007" />
      <path
         id="path138"
         style="fill:#ffffff;fill-opacity:1;fill-rule:nonzero;stroke:none"
         d="m 234.7744,194.8232 c 0,0 1.048,0.3583 1.048,0.3583 0,0 -0.4533,1.3227 -0.4533,1.3227 0,0 -1.0477,-0.3586 -1.0477,-0.3586 0,0 0.453,-1.3224 0.453,-1.3224 z m 1.2158,2.3624 c 0,0 0.4569,-0.3127 0.4569,-0.3127 0,0 -0.521,-0.178 -0.521,-0.178 0,0 1.0491,-3.0651 1.0491,-3.0651 0,0 -0.6772,0.1576 -0.6772,0.1576 0,0 -0.2854,0.8365 -0.2854,0.8365 0,0 -1.0471,-0.3585 -1.0471,-0.3585 0,0 0.1188,-0.3484 0.1188,-0.3484 0.0274,-0.0785 0.0294,-0.1517 0.005,-0.2203 -0.023,-0.0677 -0.0633,-0.1108 -0.118,-0.1298 -0.1771,-0.0609 -0.4124,-0.0111 -0.7052,0.1477 -0.2937,0.1593 -0.4717,0.3316 -0.5355,0.5176 -0.0187,0.0555 -0.0116,0.1128 0.0235,0.1712 0.0341,0.0587 0.0842,0.0992 0.1491,0.1213 0,0 0.313,0.1072 0.313,0.1072 0,0 -0.4524,1.3229 -0.4524,1.3229 0,0 -0.7316,-0.2509 -0.7316,-0.2509 0,0 -0.4576,0.3127 -0.4576,0.3127 0,0 3.4155,1.169 3.4155,1.169" />
      <path
         id="path140"
         style="fill:#ffffff;fill-opacity:1;fill-rule:nonzero;stroke:none"
         d="m 234.3555,198.3385 c 0.0793,0.1712 0.2075,0.2931 0.3858,0.3645 0.1814,0.0728 0.3704,0.0921 0.5649,0.0564 0.1933,-0.0354 0.3628,-0.1219 0.5074,-0.2585 0,0 -0.0612,-0.144 -0.0612,-0.144 -0.0947,0.0519 -0.1891,0.0833 -0.2826,0.0927 -0.0947,0.0102 -0.1812,-3e-4 -0.258,-0.0318 -0.1601,-0.064 -0.2738,-0.176 -0.3424,-0.3356 -0.068,-0.1607 -0.0706,-0.32 -0.007,-0.4796 0.036,-0.0868 0.0989,-0.1701 0.1919,-0.2492 0.0924,-0.0791 0.2095,-0.1491 0.3504,-0.2086 0,0 -0.0933,-0.1644 -0.0933,-0.1644 -0.2313,0.0765 -0.4317,0.189 -0.6029,0.3373 -0.1693,0.1491 -0.2931,0.318 -0.3708,0.5097 -0.0666,0.1686 -0.0612,0.3387 0.0176,0.5111" />
      <path
         id="path142"
         style="fill:#ffffff;fill-opacity:1;fill-rule:nonzero;stroke:none"
         d="m 239.2852,198.7089 c 0,0 0.4864,-0.2554 0.4864,-0.2554 0,0 -0.4966,-0.2347 -0.4966,-0.2347 0,0 1.3833,-2.927 1.3833,-2.927 0,0 -0.6914,0.0782 -0.6914,0.0782 0,0 -0.6613,1.4009 -0.6613,1.4009 0,0 -0.9332,-0.4414 -0.9332,-0.4414 0.2061,-0.0558 0.3858,-0.1389 0.5398,-0.2517 0.1533,-0.1128 0.2664,-0.2449 0.3381,-0.3954 0.0771,-0.1641 0.0817,-0.3339 0.0128,-0.5114 -0.07,-0.1752 -0.1905,-0.3047 -0.3637,-0.3869 -0.2891,-0.1364 -0.6497,-0.1009 -1.0811,0.1052 -0.432,0.2066 -0.8448,0.5408 -1.2359,1.0026 0,0 0.1675,0.161 0.1675,0.161 0.2775,-0.326 0.5723,-0.5601 0.8816,-0.703 0.3095,-0.142 0.5711,-0.1633 0.7849,-0.0624 0.0927,0.0445 0.1553,0.1171 0.1859,0.2191 0.0312,0.1021 0.0219,0.2039 -0.0263,0.3065 -0.074,0.1553 -0.2209,0.2928 -0.4434,0.4121 -0.2222,0.1185 -0.4923,0.205 -0.8124,0.2617 0,0 1.7326,0.8189 1.7326,0.8189 0,0 -0.3124,0.661 -0.3124,0.661 0,0 -2.7261,-1.2883 -2.7261,-1.2883 0,0 -0.4873,0.2554 -0.4873,0.2554 0,0 3.7582,1.775 3.7582,1.775" />
      <path
         id="path144"
         style="fill:#ffffff;fill-opacity:1;fill-rule:nonzero;stroke:none"
         d="m 240.3201,199.3632 c 0,0 0.5094,-0.2197 0.5094,-0.2197 0,0 -0.4773,-0.2752 -0.4773,-0.2752 0,0 1.6183,-2.8066 1.6183,-2.8066 0,0 -0.6959,0.0243 -0.6959,0.0243 0,0 -1.4341,2.4872 -1.4341,2.4872 0,0 -0.4544,-0.2614 -0.4544,-0.2614 0,0 -0.5099,0.2191 -0.5099,0.2191 0,0 1.4439,0.8323 1.4439,0.8323" />
      <path
         id="path146"
         style="fill:#ffffff;fill-opacity:1;fill-rule:nonzero;stroke:none"
         d="m 205.026,221.2489 c 0,-0.9323 2.1721,-1.4071 2.7399,-1.5522 2.4285,-0.622 4.9581,-0.921 7.4537,-1.0939 2.3128,-0.161 5.1265,0.216 7.3469,0.7957 -1.3045,1.7373 -2.5665,3.4812 -3.4711,5.4555 -8.2394,-0.5428 -14.0694,-2.1991 -14.0694,-3.6051 z m 25.3865,3.6235 c -0.9046,-1.9743 -2.1665,-3.7184 -3.4711,-5.4555 2.2204,-0.5797 5.0341,-0.9567 7.3469,-0.7957 2.4956,0.1729 5.0255,0.472 7.4537,1.0936 0.5678,0.1454 2.74,0.6202 2.74,1.5525 0,1.4057 -5.8301,3.062 -14.0695,3.6051" />
      <path
         id="path148"
         style="fill:none;stroke:#1f1917;stroke-width:0.75;stroke-linecap:butt;stroke-linejoin:miter;stroke-miterlimit:10;stroke-opacity:1;stroke-dasharray:none"
         d="m 205.026,221.2489 c 0,-0.9323 2.1721,-1.4071 2.7399,-1.5522 2.4285,-0.622 4.9581,-0.921 7.4537,-1.0939 2.3128,-0.161 5.1265,0.216 7.3469,0.7957 -1.3045,1.7373 -2.5665,3.4812 -3.4711,5.4555 -8.2394,-0.5428 -14.0694,-2.1991 -14.0694,-3.6051 z m 25.3865,3.6235 c -0.9046,-1.9743 -2.1665,-3.7184 -3.4711,-5.4555 2.2204,-0.5797 5.0341,-0.9567 7.3469,-0.7957 2.4956,0.1729 5.0255,0.472 7.4537,1.0936 0.5678,0.1454 2.74,0.6202 2.74,1.5525 0,1.4057 -5.8301,3.062 -14.0695,3.6051 z" />
      <path
         id="path150"
         style="fill:#ffffff;fill-opacity:1;fill-rule:nonzero;stroke:none"
         d="m 222.5693,219.4075 c -1.2954,1.7272 -2.5484,3.4949 -3.4481,5.4618 -0.0689,0.1514 -0.1409,0.3013 -0.2055,0.455 -0.4527,1.0757 -0.8158,2.1767 -1.0264,3.2428 -0.949,4.7911 0.5632,9.6531 3.2133,13.6344 1.548,2.3267 3.1975,4.6953 3.6188,7.5231 0,0 0.0907,0 0.0907,0 0.4212,-2.8278 2.0707,-5.1964 3.6184,-7.5231 2.6498,-3.9813 4.1627,-8.8433 3.2142,-13.6344 -0.2118,-1.0661 -0.5746,-2.1671 -1.0273,-3.2428 -0.0646,-0.1528 -0.1363,-0.3016 -0.2049,-0.4519 -0.9046,-1.9743 -2.1665,-3.7184 -3.4711,-5.4555 -0.8146,0.2123 -1.5519,0.4518 -2.1514,0.703 -0.601,-0.2517 -1.3394,-0.491 -2.1555,-0.7039 0,0 -0.0584,-0.0141 -0.0652,-0.008" />
      <path
         id="path152"
         style="fill:none;stroke:#1f1917;stroke-width:0.75;stroke-linecap:butt;stroke-linejoin:miter;stroke-miterlimit:10;stroke-opacity:1;stroke-dasharray:none"
         d="m 222.5693,219.4075 c -1.2954,1.7272 -2.5484,3.4949 -3.4481,5.4618 -0.0689,0.1514 -0.1409,0.3013 -0.2055,0.455 -0.4527,1.0757 -0.8158,2.1767 -1.0264,3.2428 -0.949,4.7911 0.5632,9.6531 3.2133,13.6344 1.548,2.3267 3.1975,4.6953 3.6188,7.5231 0,0 0.0907,0 0.0907,0 0.4212,-2.8278 2.0707,-5.1964 3.6184,-7.5231 2.6498,-3.9813 4.1627,-8.8433 3.2142,-13.6344 -0.2118,-1.0661 -0.5746,-2.1671 -1.0273,-3.2428 -0.0646,-0.1528 -0.1363,-0.3016 -0.2049,-0.4519 -0.9046,-1.9743 -2.1665,-3.7184 -3.4711,-5.4555 -0.8146,0.2123 -1.5519,0.4518 -2.1514,0.703 -0.601,-0.2517 -1.3394,-0.491 -2.1555,-0.7039 0,0 -0.0584,-0.0141 -0.0652,-0.008 z" />
      <path
         id="path154"
         style="fill:#781f19;fill-opacity:1;fill-rule:nonzero;stroke:none"
         d="m 222.5665,219.3985 c -2.2204,-0.5797 -5.0341,-0.9567 -7.3469,-0.7957 -2.4956,0.1729 -5.0252,0.4719 -7.4537,1.0939 -0.5139,0.1312 -2.3408,0.5326 -2.6838,1.2985 0,0 -3e-4,0 -3e-4,0 1.8842,-6.9092 9.9765,-12.1048 19.677,-12.1048 9.699,0 17.7922,5.1951 19.6752,12.1042 0,0 -0.0178,0 -0.0178,0 -0.3645,-0.7534 -2.1648,-1.1494 -2.6742,-1.2798 -2.4282,-0.6216 -4.9581,-0.9207 -7.4537,-1.0936 -2.3128,-0.161 -5.1265,0.216 -7.3469,0.7957 -0.8146,0.2123 -1.5519,0.4518 -2.1514,0.703 -0.601,-0.2517 -1.3394,-0.491 -2.1555,-0.7039 0,0 -0.0584,-0.0141 -0.0652,-0.008 l -0.003,-0.009 z" />
      <path
         id="path156"
         style="fill:none;stroke:#1f1917;stroke-width:0.75;stroke-linecap:butt;stroke-linejoin:miter;stroke-miterlimit:10;stroke-opacity:1;stroke-dasharray:none"
         d="m 222.5665,219.3985 c -2.2204,-0.5797 -5.0341,-0.9567 -7.3469,-0.7957 -2.4956,0.1729 -5.0252,0.4719 -7.4537,1.0939 -0.5139,0.1312 -2.3408,0.5326 -2.6838,1.2985 0,0 -3e-4,0 -3e-4,0 1.8842,-6.9092 9.9765,-12.1048 19.677,-12.1048 9.699,0 17.7922,5.1951 19.6752,12.1042 0,0 -0.0178,0 -0.0178,0 -0.3645,-0.7534 -2.1648,-1.1494 -2.6742,-1.2798 -2.4282,-0.6216 -4.9581,-0.9207 -7.4537,-1.0936 -2.3128,-0.161 -5.1265,0.216 -7.3469,0.7957 -0.8146,0.2123 -1.5519,0.4518 -2.1514,0.703 -0.601,-0.2517 -1.3394,-0.491 -2.1555,-0.7039 0,0 -0.0584,-0.0141 -0.0652,-0.008" />
      <path
         id="path158"
         style="fill:#bda345;fill-opacity:1;fill-rule:nonzero;stroke:none"
         d="m 225.1148,225.1998 c -0.1551,-0.1576 -0.2937,-0.3327 -0.2988,-0.475 0,0 -0.0198,0 -0.0198,0 -0.005,0.1499 -0.1596,0.3361 -0.3243,0.5003 0,0 0,-5.1585 0,-5.1585 0,0 0.1865,0 0.1865,0 0.044,0.0178 0.089,0.0354 0.1316,0.0533 0.0425,-0.0179 0.0875,-0.0355 0.1312,-0.0533 0,0 0.1936,0 0.1936,0 0,0 0,5.1332 0,5.1332" />
      <path
         id="path160"
         style="fill:none;stroke:#1f1917;stroke-width:0.75;stroke-linecap:butt;stroke-linejoin:miter;stroke-miterlimit:10;stroke-opacity:1;stroke-dasharray:none"
         d="m 225.1148,225.1998 c -0.1551,-0.1576 -0.2937,-0.3327 -0.2988,-0.475 0,0 -0.0198,0 -0.0198,0 -0.005,0.1499 -0.1596,0.3361 -0.3243,0.5003 0,0 0,-5.1585 0,-5.1585 0,0 0.1865,0 0.1865,0 0.044,0.0178 0.089,0.0354 0.1316,0.0533 0.0425,-0.0179 0.0875,-0.0355 0.1312,-0.0533 0,0 0.1936,0 0.1936,0 0,0 0,5.1332 0,5.1332 z" />
      <path
         id="path162"
         style="fill:#d9261c;fill-opacity:1;fill-rule:nonzero;stroke:none"
         d="m 224.8744,228.8948 c 0,0 -0.1403,0 -0.1403,0 -0.7095,0 -1.3022,-0.5105 -1.461,-1.2277 -0.2058,-0.9275 0.2186,-1.5205 0.8487,-2.1189 0.1661,-0.1567 0.6648,-0.5513 0.6744,-0.8234 0,0 0.0198,0 0.0198,0 0.01,0.2721 0.5083,0.6667 0.6741,0.8234 0.6304,0.5984 1.0551,1.1914 0.8493,2.1189 -0.1593,0.7172 -0.7521,1.2277 -1.4613,1.2277 0,0 -0.14,0 -0.14,0 l 0.1363,0 z" />
      <path
         id="path164"
         style="fill:none;stroke:#1f1917;stroke-width:0.75;stroke-linecap:butt;stroke-linejoin:round;stroke-miterlimit:10;stroke-opacity:1;stroke-dasharray:none"
         d="m 224.8744,228.8948 c 0,0 -0.1403,0 -0.1403,0 -0.7095,0 -1.3022,-0.5105 -1.461,-1.2277 -0.2058,-0.9275 0.2186,-1.5205 0.8487,-2.1189 0.1661,-0.1567 0.6648,-0.5513 0.6744,-0.8234 0,0 0.0198,0 0.0198,0 0.01,0.2721 0.5083,0.6667 0.6741,0.8234 0.6304,0.5984 1.0551,1.1914 0.8493,2.1189 -0.1593,0.7172 -0.7521,1.2277 -1.4613,1.2277 0,0 -0.14,0 -0.14,0" />
      <path
         id="path166"
         style="fill:#d9261c;fill-opacity:1;fill-rule:nonzero;stroke:none"
         d="m 223.2731,227.6671 c 0.1066,0.4825 0.4122,0.8663 0.8153,1.0695 0,0 0.0544,0.0856 0.0544,0.0856 0,0 -1.7651,1.4304 -3.973,-0.2868 0.1054,0.0482 0.9595,-0.6891 1.0732,-0.7705 0.585,-0.4187 1.2036,-0.5885 1.9323,-0.4561 0,0 0.0587,0.0919 0.0587,0.0919 0.009,0.0861 0.0182,0.1737 0.0391,0.2664" />
      <path
         id="path168"
         style="fill:none;stroke:#1f1917;stroke-width:0.75;stroke-linecap:butt;stroke-linejoin:round;stroke-miterlimit:10;stroke-opacity:1;stroke-dasharray:none"
         d="m 223.2731,227.6671 c 0.1066,0.4825 0.4122,0.8663 0.8153,1.0695 0,0 0.0544,0.0856 0.0544,0.0856 0,0 -1.7651,1.4304 -3.973,-0.2868 0.1054,0.0482 0.9595,-0.6891 1.0732,-0.7705 0.585,-0.4187 1.2036,-0.5885 1.9323,-0.4561 0,0 0.0587,0.0919 0.0587,0.0919 0.009,0.0861 0.0182,0.1737 0.0391,0.2664 z" />
      <path
         id="path170"
         style="fill:#d9261c;fill-opacity:1;fill-rule:nonzero;stroke:none"
         d="m 225.3623,228.8378 c 0,0 0.0218,-0.0343 0.0218,-0.0343 0.4728,-0.1774 0.8359,-0.5984 0.9553,-1.1364 0.0283,-0.1295 0.0425,-0.2514 0.0476,-0.3691 0.6948,-0.1063 1.2906,0.0633 1.8544,0.4669 0.1131,0.0814 0.9675,0.8187 1.0729,0.7705 -2.2079,1.7172 -3.952,0.3024 -3.952,0.3024" />
      <path
         id="path172"
         style="fill:none;stroke:#1f1917;stroke-width:0.75;stroke-linecap:butt;stroke-linejoin:round;stroke-miterlimit:10;stroke-opacity:1;stroke-dasharray:none"
         d="m 225.3623,228.8378 c 0,0 0.0218,-0.0343 0.0218,-0.0343 0.4728,-0.1774 0.8359,-0.5984 0.9553,-1.1364 0.0283,-0.1295 0.0425,-0.2514 0.0476,-0.3691 0.6948,-0.1063 1.2906,0.0633 1.8544,0.4669 0.1131,0.0814 0.9675,0.8187 1.0729,0.7705 -2.2079,1.7172 -3.952,0.3024 -3.952,0.3024 z" />
      <path
         id="path174"
         style="fill:#d9261c;fill-opacity:1;fill-rule:nonzero;stroke:none"
         d="m 224.7143,238.9612 c 0,0 -4.5386,-6.9299 -0.5522,-9.9967 0,0 1.1035,0 1.1035,0 3.9864,3.0668 -0.5522,9.9967 -0.5522,9.9967 l 9e-4,0 z" />
      <path
         id="path176"
         style="fill:none;stroke:#1f1917;stroke-width:0.75;stroke-linecap:round;stroke-linejoin:round;stroke-miterlimit:10;stroke-opacity:1;stroke-dasharray:none"
         d="m 224.7143,238.9612 c 0,0 -4.5386,-6.9299 -0.5522,-9.9967 0,0 1.1035,0 1.1035,0 3.9864,3.0668 -0.5522,9.9967 -0.5522,9.9967" />
      <path
         id="path178"
         style="fill:#d9261c;fill-opacity:1;fill-rule:nonzero;stroke:none"
         d="m 223.7287,237.1428 c 0,0 -1.9075,1.6803 -1.9075,1.6803 0.1681,-0.1482 0.0973,-1.1264 0.1009,-1.3484 0.008,-0.5318 -0.0218,-1.0644 -0.0748,-1.5939 -0.0697,-0.7007 -0.2191,-1.3802 -0.3285,-2.0738 -0.1724,-1.0945 -0.0411,-2.2405 0.5641,-3.1893 0.4442,-0.697 1.2747,-1.2991 2.0364,-1.6163 -2.6357,2.0806 -1.4454,5.8844 -0.3906,8.1414" />
      <path
         id="path180"
         style="fill:none;stroke:#1f1917;stroke-width:0.75;stroke-linecap:butt;stroke-linejoin:round;stroke-miterlimit:10;stroke-opacity:1;stroke-dasharray:none"
         d="m 223.7287,237.1428 c 0,0 -1.9075,1.6803 -1.9075,1.6803 0.1681,-0.1482 0.0973,-1.1264 0.1009,-1.3484 0.008,-0.5318 -0.0218,-1.0644 -0.0748,-1.5939 -0.0697,-0.7007 -0.2191,-1.3802 -0.3285,-2.0738 -0.1724,-1.0945 -0.0411,-2.2405 0.5641,-3.1893 0.4442,-0.697 1.2747,-1.2991 2.0364,-1.6163 -2.6357,2.0806 -1.4454,5.8844 -0.3906,8.1414 z" />
      <path
         id="path182"
         style="fill:#d9261c;fill-opacity:1;fill-rule:nonzero;stroke:none"
         d="m 227.9305,233.807 c -0.11,0.6936 -0.2594,1.3731 -0.3291,2.0738 -0.0531,0.5295 -0.0837,1.0621 -0.0746,1.5939 0.003,0.222 -0.0677,1.2002 0.1003,1.3484 0,0 -1.9218,-1.6934 -1.9218,-1.6934 1.0561,-2.2654 2.2419,-6.0752 -0.4196,-8.1479 0.7733,0.3124 1.6274,0.9255 2.0804,1.6359 0.6052,0.9488 0.737,2.0948 0.5644,3.1893" />
      <path
         id="path184"
         style="fill:none;stroke:#1f1917;stroke-width:0.75;stroke-linecap:butt;stroke-linejoin:round;stroke-miterlimit:10;stroke-opacity:1;stroke-dasharray:none"
         d="m 227.9305,233.807 c -0.11,0.6936 -0.2594,1.3731 -0.3291,2.0738 -0.0531,0.5295 -0.0837,1.0621 -0.0746,1.5939 0.003,0.222 -0.0677,1.2002 0.1003,1.3484 0,0 -1.9218,-1.6934 -1.9218,-1.6934 1.0561,-2.2654 2.2419,-6.0752 -0.4196,-8.1479 0.7733,0.3124 1.6274,0.9255 2.0804,1.6359 0.6052,0.9488 0.737,2.0948 0.5644,3.1893 z" />
      <path
         id="path186"
         style="fill:#d9261c;fill-opacity:1;fill-rule:nonzero;stroke:none"
         d="m 225.5579,229.1037 c 0,0 0.1026,-0.0768 0.1026,-0.0768 0.4476,0.2415 1.3654,0.578 2.5126,0.1556 0,0 0.072,0.023 0.072,0.023 0,0 0.3946,1.0774 1.0692,1.0774 0,0 -0.8954,0.4748 -2.0766,0.1557 -0.4136,-0.5522 -1.0525,-1.0321 -1.6798,-1.3349" />
      <path
         id="path188"
         style="fill:none;stroke:#1f1917;stroke-width:0.75;stroke-linecap:butt;stroke-linejoin:round;stroke-miterlimit:10;stroke-opacity:1;stroke-dasharray:none"
         d="m 225.5579,229.1037 c 0,0 0.1026,-0.0768 0.1026,-0.0768 0.4476,0.2415 1.3654,0.578 2.5126,0.1556 0,0 0.072,0.023 0.072,0.023 0,0 0.3946,1.0774 1.0692,1.0774 0,0 -0.8954,0.4748 -2.0766,0.1557 -0.4136,-0.5522 -1.0525,-1.0321 -1.6798,-1.3349 z" />
      <path
         id="path190"
         style="fill:#d9261c;fill-opacity:1;fill-rule:nonzero;stroke:none"
         d="m 223.7941,229.038 c 0,0 0.0599,0.0274 0.0599,0.0274 0,0 -0.0256,0.0695 -0.0256,0.0695 -0.6057,0.303 -1.2155,0.7679 -1.6154,1.3011 0,0 -0.006,6e-4 -0.006,6e-4 -1.1858,0.3237 -2.0846,-0.1537 -2.0846,-0.1537 0.6738,0 1.0683,-1.0774 1.0683,-1.0774 0,0 0.0842,-0.0403 0.0842,-0.0403 1.1308,0.4266 2.0475,0.1179 2.5197,-0.1272" />
      <path
         id="path192"
         style="fill:none;stroke:#1f1917;stroke-width:0.75;stroke-linecap:butt;stroke-linejoin:round;stroke-miterlimit:10;stroke-opacity:1;stroke-dasharray:none"
         d="m 223.7941,229.038 c 0,0 0.0599,0.0274 0.0599,0.0274 0,0 -0.0256,0.0695 -0.0256,0.0695 -0.6057,0.303 -1.2155,0.7679 -1.6154,1.3011 0,0 -0.006,6e-4 -0.006,6e-4 -1.1858,0.3237 -2.0846,-0.1537 -2.0846,-0.1537 0.6738,0 1.0683,-1.0774 1.0683,-1.0774 0,0 0.0842,-0.0403 0.0842,-0.0403 1.1308,0.4266 2.0475,0.1179 2.5197,-0.1272 z" />
      <path
         id="path194"
         style="fill:#d9261c;fill-opacity:1;fill-rule:nonzero;stroke:none"
         d="m 223.7179,237.1201 c 0.1984,0.4258 0.3912,0.7962 0.5544,1.0916 0,0 -0.7843,1.0868 -0.7843,1.0868 0,0 -0.6134,-1.3493 -0.6134,-1.3493 0,0 0,-0.0541 0,-0.0541 0,0 0.8541,-0.7523 0.8541,-0.7523 -0.004,-0.007 -0.007,-0.0153 -0.0108,-0.0227" />
      <path
         id="path196"
         style="fill:none;stroke:#1f1917;stroke-width:0.75;stroke-linecap:butt;stroke-linejoin:miter;stroke-miterlimit:10;stroke-opacity:1;stroke-dasharray:none"
         d="m 223.7179,237.1201 c 0.1984,0.4258 0.3912,0.7962 0.5544,1.0916 0,0 -0.7843,1.0868 -0.7843,1.0868 0,0 -0.6134,-1.3493 -0.6134,-1.3493 0,0 0,-0.0541 0,-0.0541 0,0 0.8541,-0.7523 0.8541,-0.7523 -0.004,-0.007 -0.007,-0.0153 -0.0108,-0.0227 z" />
      <path
         id="path198"
         style="fill:#d9261c;fill-opacity:1;fill-rule:nonzero;stroke:none"
         d="m 225.7053,237.1297 c 0,0 0.9377,0.8263 0.9377,0.8263 0,0 -0.6098,1.3425 -0.6098,1.3425 0,0 -0.7974,-1.1041 -0.7974,-1.1041 0,0 0,-0.1298 0,-0.1298 0.1483,-0.2741 0.3155,-0.6035 0.4859,-0.9709 -0.005,0.0122 -0.0113,0.0244 -0.0164,0.036" />
      <path
         id="path200"
         style="fill:none;stroke:#1f1917;stroke-width:0.75;stroke-linecap:butt;stroke-linejoin:miter;stroke-miterlimit:10;stroke-opacity:1;stroke-dasharray:none"
         d="m 225.7053,237.1297 c 0,0 0.9377,0.8263 0.9377,0.8263 0,0 -0.6098,1.3425 -0.6098,1.3425 0,0 -0.7974,-1.1041 -0.7974,-1.1041 0,0 0,-0.1298 0,-0.1298 0.1483,-0.2741 0.3155,-0.6035 0.4859,-0.9709 -0.005,0.0122 -0.0113,0.0244 -0.0164,0.036 z" />
    </g>
  </g>
</svg>
